<?xml version="1.0" encoding="UTF-8" standalone="no"?><!DOCTYPE svg PUBLIC "-//W3C//DTD SVG 1.1//EN" "http://www.w3.org/Graphics/SVG/1.1/DTD/svg11.dtd"><svg width="100%" height="100%" viewBox="0 0 1625 540" version="1.1" xmlns="http://www.w3.org/2000/svg" xmlns:xlink="http://www.w3.org/1999/xlink" xml:space="preserve" xmlns:serif="http://www.serif.com/" style="fill-rule:evenodd;clip-rule:evenodd;stroke-linejoin:round;stroke-miterlimit:2;"><g id="SvgjsG1007"><g><g><g><path d="M202.689,198.68c-5.163,1.614 -8.232,2.603 -8.232,2.603c1.879,-1.093 4.168,-1.984 7.035,-2.499l1.197,-0.104Z" style="fill:#fff;fill-rule:nonzero;"/><path d="M154.083,215.84c15.928,0 28.843,-12.908 28.843,-28.837c0,-15.935 -12.915,-28.851 -28.843,-28.851c-15.929,0 -28.844,12.916 -28.844,28.851c-0,15.929 12.915,28.837 28.844,28.837" style="fill:#fff;fill-rule:nonzero;"/><path d="M245.2,151.625l10.354,18.343l4.531,-2.567l-8.594,-15.226l42.58,-24.049c1.719,-0.975 2.317,-3.16 1.343,-4.878l-21.516,-38.099c-0.968,-1.719 -3.153,-2.325 -4.872,-1.35l-42.573,24.056l-8.594,-15.226l-4.537,2.561l10.362,18.343l21.516,38.092Z" style="fill:#fff;fill-rule:nonzero;"/><path d="M368.084,171.847l-0.94,-2.442c0.112,-0.056 0.209,-0.112 0.313,-0.16c0.056,-0.049 0.105,-0.049 0.105,-0.049l-0,0.049c0.056,0.16 0.264,1.148 0.577,2.609l-0.055,0l-0,-0.007Z" style="fill:#fff;fill-rule:nonzero;"/><path d="M367.729,178.305l-0.731,-2.554c0.571,-0.146 1.204,-0.299 1.823,-0.466c0.105,0.835 0.265,1.726 0.369,2.609c-0.529,0.16 -0.995,0.265 -1.461,0.411" style="fill:#fff;fill-rule:nonzero;"/><path d="M363.602,191.749c1.928,-0.675 4.016,-1.454 5.901,-2.289c-0.16,0.835 -0.368,1.558 -0.689,2.136c-0.306,0.619 -1.398,1.357 -3.068,2.241c-0.105,-0 -0.147,-0 -0.209,0.048c-0.724,0.209 -1.141,0.369 -1.141,0.369l-0.794,-2.505Z" style="fill:#fff;fill-rule:nonzero;"/><path d="M368.139,182.431c0.369,-0.055 0.884,-0.16 1.51,-0.271c0.056,0.939 0.105,1.823 0.105,2.658c-0.619,0.112 -1.037,0.209 -1.204,0.209l-0.411,-2.596Z" style="fill:#fff;fill-rule:nonzero;"/><path d="M380.797,166.336c-1.461,1.246 -10.006,4.474 -12.658,5.511l-0.055,0l-0.94,-2.442c0.112,-0.056 0.209,-0.105 0.313,-0.16l0.105,-0c5.059,-1.921 10.737,-4.266 11.516,-4.941l1.719,2.032Z" style="fill:#fff;fill-rule:nonzero;"/><path d="M379.914,173.253c-0.836,1.51 -6.041,3.284 -10.738,4.634c-0.515,0.167 -0.988,0.272 -1.454,0.418l-0.731,-2.554c0.571,-0.153 1.204,-0.306 1.823,-0.473c4.064,-1.239 8.288,-2.756 8.915,-3.438l2.185,1.413Z" style="fill:#fff;fill-rule:nonzero;"/><path d="M379.336,181.958c-2.185,1.357 -7.237,2.387 -9.589,2.867c-0.619,0.105 -1.037,0.209 -1.204,0.209l-0.411,-2.603c0.369,-0.055 0.884,-0.16 1.51,-0.271c2.554,-0.515 6.723,-1.447 8.274,-2.442l1.42,2.24Z" style="fill:#fff;fill-rule:nonzero;"/><path d="M377.353,187.323c-1.093,2.506 -8.49,5.366 -11.614,6.514c-0.105,-0 -0.146,-0 -0.209,0.048c-0.724,0.209 -1.141,0.369 -1.141,0.369l-0.787,-2.498c1.928,-0.675 4.016,-1.454 5.901,-2.296c2.805,-1.253 5.094,-2.505 5.407,-3.18l2.443,1.043Z" style="fill:#fff;fill-rule:nonzero;"/><path d="M295.518,539.177c81.334,-0 154.463,-35.796 204.482,-92.523l-408.901,-0c49.957,56.727 123.1,92.523 204.419,92.523Z" style="fill:#fff;fill-rule:nonzero;"/><path d="M461.087,427.176c-0,10.515 -8.552,19.116 -19.067,19.116c-3.493,-0 -6.729,-0.947 -9.54,-2.554l-0.153,-0.104c-0.835,-0.474 -1.608,-1.044 -2.29,-1.615l-79.294,-54.389c-2.659,-1.503 -4.899,-3.64 -6.562,-6.207l-50.632,-58.857l-69.392,32.344l38.558,62.364l-0.056,-0c1.775,2.86 2.812,6.242 2.812,9.902c-0,10.515 -8.546,19.116 -19.123,19.116c-6.144,-0 -11.614,-2.972 -15.107,-7.509l-0.056,-0.048c-1.037,-1.357 -1.928,-2.86 -2.554,-4.482l-44.897,-78.772c-0.78,-1.093 -1.462,-2.29 -2.032,-3.542l-0,-0.056c-0.988,-2.283 -1.559,-4.836 -1.559,-7.495c-0,-7.244 4.008,-13.493 9.895,-16.721l0,-0.056c0.787,-0.425 1.615,-0.779 2.45,-1.093l80.582,-36.672c-17.404,-20.104 -52.873,-44.014 -68.766,-53.241c-0,-0 -43.242,13.91 -50.221,13.91c-6.98,0 -57.257,-7.71 -57.257,-7.71c-7.446,0 -13.493,-6.04 -13.493,-13.486c0,-7.453 6.047,-13.444 13.493,-13.444l54.39,7.501l34.953,-11.565l1.51,-2.296c0.835,-2.86 2.811,-5.992 6.771,-8.232c0,-0 3.076,-0.989 8.232,-2.603c23.91,-7.501 92.356,-27.974 98.299,-18.496c7.091,11.252 63.658,-9.896 66.476,-10.946c-0.104,0.055 -0.201,0.104 -0.313,0.16l0.94,2.442l0.055,0c0.202,0.94 0.411,2.137 0.675,3.438c-0.619,0.16 -1.252,0.32 -1.823,0.473l0.731,2.554c0.466,-0.146 0.939,-0.258 1.454,-0.418c0.202,1.406 0.369,2.867 0.466,4.273c-0.626,0.104 -1.141,0.209 -1.51,0.271l0.411,2.603c0.16,-0 0.585,-0.104 1.204,-0.209c0.056,1.719 -0,3.285 -0.251,4.642c-1.885,0.835 -3.966,1.614 -5.901,2.296l0.787,2.498c-0,0 0.417,-0.153 1.141,-0.362c-13.702,6.827 -64.8,19.276 -66.574,9.165c-0.779,-4.641 -17.244,-2.651 -36.464,1.301c26.256,3.911 57.827,10.369 86.581,20.842c64.903,23.708 119.919,27.507 119.919,27.507c0,0 -17.967,99.183 -63.394,99.183c-27.925,-23.91 -63.616,-45.788 -85.585,-58.439l54.744,65.224c0.049,0.097 0.146,0.194 0.202,0.306l0.104,0.118l77.416,52.142c5.17,3.368 8.615,9.248 8.615,15.928" style="fill:#fff;fill-rule:nonzero;"/></g></g></g></g><g id="SvgjsG1008"><path d="M583.333,389.462l0,-218.629l42.801,0l-0,76.058c4.434,-5.784 10.844,-10.556 19.231,-14.315c8.386,-3.76 18.074,-5.64 29.064,-5.64c16.387,0 30.606,3.664 42.655,10.99c12.05,7.326 21.256,17.303 27.618,29.931c6.362,12.628 9.543,26.654 9.543,42.077c0,15.424 -3.181,29.45 -9.543,42.078c-6.362,12.628 -15.568,22.605 -27.618,29.931c-12.049,7.326 -26.268,10.989 -42.655,10.989c-10.604,0 -20.388,-1.976 -29.353,-5.928c-8.965,-3.953 -15.279,-8.435 -18.942,-13.448l-0,15.906l-42.801,-0Zm52.778,-46.704c7.808,8 18.46,12.001 31.955,12.001c13.11,-0 23.666,-4.242 31.667,-12.724c8.001,-8.483 12.001,-19.183 12.001,-32.101c0,-13.302 -3.904,-24.147 -11.712,-32.534c-7.808,-8.386 -18.46,-12.58 -31.956,-12.58c-13.302,0 -23.906,4.194 -31.811,12.58c-7.904,8.387 -11.857,19.232 -11.857,32.534c0,13.881 3.905,24.823 11.713,32.824Zm229.184,-70.852c-8.29,2.024 -15.906,6.796 -22.846,14.315c-6.941,7.519 -10.411,18.508 -10.411,32.967l-0,70.274l-43.09,-0l0,-159.055l43.09,-0l-0,21.111c7.133,-9.447 15.857,-15.858 26.172,-19.232c10.314,-3.373 19.713,-4.964 28.196,-4.771l-0,42.222c-5.784,-0.579 -12.821,0.144 -21.111,2.169Zm82.853,113.796c-13.206,-5.205 -24.533,-14.025 -33.98,-26.461c-9.447,-12.435 -14.17,-28.678 -14.17,-48.728c-0,-20.051 4.771,-36.246 14.315,-48.584c9.543,-12.339 20.966,-21.111 34.269,-26.317c13.303,-5.205 25.931,-7.808 37.884,-7.808c13.881,0 27.087,3.085 39.619,9.254c12.532,6.17 22.798,15.231 30.799,27.184c8.001,11.953 12.194,26.124 12.58,42.511c-0,5.013 -0.097,9.351 -0.289,13.014c-0.193,3.663 -0.386,5.976 -0.579,6.94l-125.509,0c2.314,11.182 8.098,18.798 17.352,22.847c9.254,4.048 17.93,6.073 26.027,6.073c10.411,-0 18.701,-1.88 24.87,-5.64c6.17,-3.759 11.472,-8.049 15.906,-12.869l33.546,19.376c-18.123,24.678 -42.897,37.017 -74.322,37.017c-12.339,-0 -25.112,-2.603 -38.318,-7.809Zm8.82,-111.194c-7.519,5.881 -11.76,13.062 -12.724,21.545l79.528,0c-0.579,-5.013 -2.507,-9.832 -5.784,-14.459c-3.278,-4.627 -7.664,-8.435 -13.158,-11.423c-5.495,-2.989 -11.713,-4.483 -18.653,-4.483c-11.954,0 -21.69,2.94 -29.209,8.82Zm188.119,111.194c-13.206,-5.205 -24.533,-14.025 -33.98,-26.461c-9.447,-12.435 -14.17,-28.678 -14.17,-48.728c-0,-20.051 4.772,-36.246 14.315,-48.584c9.543,-12.339 20.966,-21.111 34.269,-26.317c13.303,-5.205 25.931,-7.808 37.884,-7.808c13.881,0 27.088,3.085 39.619,9.254c12.532,6.17 22.798,15.231 30.799,27.184c8.001,11.953 12.194,26.124 12.58,42.511c-0,5.013 -0.096,9.351 -0.289,13.014c-0.193,3.663 -0.386,5.976 -0.579,6.94l-125.509,0c2.314,11.182 8.098,18.798 17.352,22.847c9.254,4.048 17.93,6.073 26.027,6.073c10.411,-0 18.701,-1.88 24.871,-5.64c6.169,-3.759 11.471,-8.049 15.905,-12.869l33.546,19.376c-18.122,24.678 -42.896,37.017 -74.322,37.017c-12.339,-0 -25.111,-2.603 -38.318,-7.809Zm8.821,-111.194c-7.519,5.881 -11.761,13.062 -12.725,21.545l79.528,0c-0.579,-5.013 -2.507,-9.832 -5.784,-14.459c-3.278,-4.627 -7.664,-8.435 -13.158,-11.423c-5.495,-2.989 -11.712,-4.483 -18.653,-4.483c-11.953,0 -21.689,2.94 -29.208,8.82Zm137.944,-6.217l-0,-37.306l151.247,0l-86.758,120.882l77.793,0l-0,37.595l-154.139,-0l86.468,-121.171l-74.611,-0Zm196.65,180.744l27.473,-65.357l-68.249,-152.693l50.03,0l40.198,101.217l37.016,-101.217l50.03,0l-88.782,218.05l-47.716,0Z" style="fill:#fff;fill-rule:nonzero;"/></g></svg>